HIERARCHY
ROOT Hips
{
	OFFSET 0.00000 0.00000 0.00000
	CHANNELS 6 Xposition Yposition Zposition Zrotation Yrotation Xrotation 
	JOINT LHipJoint
	{
		OFFSET 0 0 0
		CHANNELS 3 Zrotation Yrotation Xrotation
		JOINT LeftHip
		{
			OFFSET 1.26600 -1.82114 0.91038
			CHANNELS 3 Zrotation Yrotation Xrotation
			JOINT LeftKnee
			{
				OFFSET 2.50076 -6.87080 0.00000
				CHANNELS 3 Zrotation Yrotation Xrotation
				JOINT LeftAnkle
				{
					OFFSET 2.57364 -7.07102 0.00000
					CHANNELS 3 Zrotation Yrotation Xrotation
					JOINT LeftToe
					{
						OFFSET 0.13572 -0.37290 1.97004
						CHANNELS 3 Zrotation Yrotation Xrotation
						End Site
						{
							OFFSET 0.00000 -0.00000 1.01383
						}
					}
				}
			}
		}
	}
	JOINT RHipJoint
	{
		OFFSET 0 0 0
		CHANNELS 3 Zrotation Yrotation Xrotation
		JOINT RightHip
		{
			OFFSET -1.20803 -1.82114 0.91038
			CHANNELS 3 Zrotation Yrotation Xrotation
			JOINT RightKnee
			{
				OFFSET -2.54916 -7.00377 0.00000
				CHANNELS 3 Zrotation Yrotation Xrotation
				JOINT RightAnkle
				{
					OFFSET -2.56374 -7.04382 0.00000
					CHANNELS 3 Zrotation Yrotation Xrotation
					JOINT RightToe
					{
						OFFSET -0.23520 -0.64621 2.09921
						CHANNELS 3 Zrotation Yrotation Xrotation
						End Site
						{
							OFFSET -0.00000 -0.00000 1.10065
						}
					}
				}
			}
		}
	}
	JOINT lowerback
	{
		OFFSET 0 0 0
		CHANNELS 3 Zrotation Yrotation Xrotation
		JOINT Chest
		{
			OFFSET 0.05492 2.10797 -0.12074
			CHANNELS 3 Zrotation Yrotation Xrotation
			JOINT Chest2
			{
				OFFSET 0.04577 2.11592 -0.04483
				CHANNELS 3 Zrotation Yrotation Xrotation
				JOINT lowerneck
				{
					OFFSET 0 0 0
					CHANNELS 3 Zrotation Yrotation Xrotation
					JOINT Neck
					{
						OFFSET -0.10759 1.80167 0.15770
						CHANNELS 3 Zrotation Yrotation Xrotation
						JOINT Head
						{
							OFFSET 0.09237 1.77509 -0.40848
							CHANNELS 3 Zrotation Yrotation Xrotation
							End Site
							{
								OFFSET 0.03805 1.84093 -0.15754
							}
						}
					}
				}
				JOINT LeftCollar
				{
					OFFSET 0 0 0
					CHANNELS 3 Zrotation Yrotation Xrotation
					JOINT LeftShoulder
					{
						OFFSET 3.42372 1.09575 -0.28209
CHANNELS 3 Zrotation Xrotation Yrotation
						JOINT LeftElbow
						{
OFFSET 0 -4.956810 0.000000
CHANNELS 3 Zrotation Xrotation Yrotation
							JOINT LeftWrist
							{
OFFSET 0 -3.409150 0.000000
CHANNELS 3 Zrotation Xrotation Yrotation
								JOINT lhand
								{
									OFFSET 0 0 0
CHANNELS 3 Zrotation Xrotation Yrotation
									JOINT LFingers
									{
OFFSET 0 -0.616400 0.000000
CHANNELS 3 Zrotation Xrotation Yrotation
										End Site
										{
OFFSET 0 -0.496960 0.000000
										}
									}
								}
								JOINT LThumb
								{
OFFSET 0 0.000000 0.000000
CHANNELS 3 Zrotation Xrotation Yrotation
									End Site
									{
OFFSET 0 -0.504550 0.504550
									}
								}
							}
						}
					}
				}
				JOINT RightCollar
				{
					OFFSET 0 0 0
					CHANNELS 3 Zrotation Yrotation Xrotation
					JOINT RightShoulder
					{
						OFFSET -3.24731 1.15872 -0.32221
CHANNELS 3 Zrotation Xrotation Yrotation
						JOINT RightElbow
						{
OFFSET 0 -5.352000 0.000000
CHANNELS 3 Zrotation Xrotation Yrotation
							JOINT RightWrist
							{
OFFSET 0 -3.437210 -0.000000
CHANNELS 3 Zrotation Xrotation Yrotation
								JOINT rhand
								{
									OFFSET 0 0 0
CHANNELS 3 Zrotation Xrotation Yrotation
									JOINT RFingers
									{
OFFSET 0 -0.720090 0.000000
CHANNELS 3 Zrotation Xrotation Yrotation
										End Site
										{
OFFSET 0 -0.580560 0.000000
										}
									}
								}
								JOINT RThumb
								{
OFFSET 0 0.000000 0.000000
CHANNELS 3 Zrotation Xrotation Yrotation
									End Site
									{
OFFSET 0 -0.589420 0.589420
									}
								}
							}
						}
					}
				}
			}
		}
	}
}
MOTION
Frames: 12
Frame Time: 0.008333333333333333
-7.795263 17.617890 21.995250 193.847038 -85.006490 1604.981736 0.000000 0.000000 0.000000 -15.820025 -5.614385 -14.067720 2.418067 9.686921 27.969100 -0.984402 -18.709952 -0.827791 0.762663 5.575783 15.558712 0.000000 0.000000 0.000000 24.797390 -8.228269 -22.112700 -5.129752 -13.528071 41.379637 -0.542531 -9.628767 -20.574675 -0.565905 -4.815072 13.382510 -0.281451 0.490420 5.395444 2.665914 0.581509 2.649993 2.867422 0.239340 -0.329642 -10.656298 -2.820215 -12.350356 7.162996 -5.579911 36.324196 3.865996 -3.436430 15.267477 0.000000 0.000000 0.000000 5.255243 -2.501868 -22.375105 24.472031 -35.659403 7.980076 23.139519 -1.238902 -20.857224 0.000000 0.000000 0.000000 -7.125000 0.000000 0.000000 -5.621781 52.399961 1.026670 0.000000 0.000000 0.000000 -4.020745 0.665268 18.230956 -21.524592 -32.435548 -6.328993 -24.026037 -19.238444 -8.962670 0.000000 0.000000 0.000000 7.125000 0.000000 0.000000 2.073809 20.185682 1.231394
-8.201356 17.598545 21.945301 186.705461 -80.527563 1612.244174 0.000000 0.000000 0.000000 -15.638651 -2.949228 -12.967706 2.533304 9.898087 28.647502 -0.693787 -17.765470 -4.357046 0.449591 4.301656 11.926953 0.000000 0.000000 0.000000 26.574560 -11.593695 -20.887472 -4.414522 -12.692401 38.227908 -1.055154 -8.782096 -24.449289 -1.063562 -6.556477 18.407901 0.392830 1.001671 4.729291 2.673050 1.303532 2.198541 2.459542 0.613080 -0.445537 -10.793470 -2.559226 -12.703743 6.522143 -5.056293 37.271876 3.717727 -3.378803 15.739623 0.000000 0.000000 0.000000 5.818568 -3.470382 -20.332751 24.610894 -35.803601 8.061114 22.634306 -0.499406 -20.890517 0.000000 0.000000 0.000000 -7.125000 0.000000 0.000000 -6.142375 52.343231 1.113670 0.000000 0.000000 0.000000 -4.034820 0.840675 20.474512 -21.062088 -31.900752 -6.082688 -22.179031 -17.974771 -10.341556 0.000000 0.000000 0.000000 7.125000 0.000000 0.000000 3.436606 18.843039 2.146345
-8.561989 17.549225 21.886345 183.315095 -73.913324 1616.432354 0.000000 0.000000 0.000000 -15.785282 -2.288790 -11.935385 2.713397 10.215944 29.678894 0.012085 -13.371142 -9.542466 0.217546 3.000036 8.279098 0.000000 0.000000 0.000000 26.094224 -10.445112 -17.412934 -3.586014 -11.588117 34.290071 -1.262857 -4.811927 -23.463433 -0.668599 -5.228991 14.562791 0.858833 1.488554 3.721219 2.588080 1.980939 1.532247 2.090912 0.963560 -0.575299 -11.115588 -2.422894 -13.240228 6.314988 -4.681243 37.315636 3.738174 -3.316678 15.849256 0.000000 0.000000 0.000000 5.105283 -1.652547 -16.909106 24.683489 -35.878622 8.103727 23.717902 -0.818185 -20.481656 0.000000 0.000000 0.000000 -7.125000 0.000000 0.000000 -4.926356 52.108333 0.864056 0.000000 0.000000 0.000000 -3.851288 0.710141 22.776587 -20.453326 -31.184463 -5.764329 -21.074329 -15.451104 -9.037187 0.000000 0.000000 0.000000 7.125000 0.000000 0.000000 4.194798 20.319037 2.483697
-8.798440 17.572093 21.796834 185.793676 -66.258908 1615.079516 0.000000 0.000000 0.000000 -14.258677 -2.169089 -11.759512 3.131522 10.904673 31.959224 0.549150 -7.434252 -13.414483 0.030430 1.125910 3.095287 0.000000 0.000000 0.000000 27.550861 -6.273822 -15.104240 -3.331064 -11.212610 33.000387 -1.293678 -1.210581 -21.963449 -0.786610 -5.661884 15.806467 1.908657 1.544280 3.276544 3.142257 2.072953 1.169432 2.075614 1.002848 -0.684070 -11.107332 -2.562971 -13.278304 6.331063 -4.866679 36.224190 3.670880 -3.373446 15.336223 0.000000 0.000000 0.000000 3.540535 0.811982 -13.547307 23.150170 -34.252096 7.222890 25.222165 -1.339294 -21.156016 0.000000 0.000000 0.000000 -7.125000 0.000000 0.000000 -3.582217 53.104810 0.714507 0.000000 0.000000 0.000000 -3.528787 0.202539 24.048638 -20.306347 -31.009085 -5.688598 -20.321723 -16.558069 -11.296225 0.000000 0.000000 0.000000 7.125000 0.000000 0.000000 4.772519 17.979218 3.076541
-8.965830 17.570338 21.690669 189.025149 -59.144089 1612.280601 0.000000 0.000000 0.000000 -11.246464 -1.431346 -14.344367 4.738810 13.083352 39.681529 0.623444 -3.650644 -14.121376 0.210069 -2.950024 -8.139790 0.000000 0.000000 0.000000 30.157123 -3.651113 -11.104026 -2.685098 -10.166924 29.519047 -1.129888 1.371654 -19.684986 -0.945583 -6.193246 17.346043 3.216360 1.014025 4.325381 3.833045 1.429124 1.094156 2.062427 0.654723 -1.317032 -10.966256 -2.880927 -12.534872 7.170943 -5.904605 35.271080 3.794263 -3.729385 14.850181 0.000000 0.000000 0.000000 2.740889 3.658768 -13.292825 20.549168 -31.298295 5.814008 23.245818 -0.179092 -22.605103 0.000000 0.000000 0.000000 -7.125000 0.000000 0.000000 -6.078814 54.255370 1.386398 0.000000 0.000000 0.000000 -3.315536 0.027591 26.614729 -21.294722 -32.170716 -6.206127 -25.730959 -20.273678 -11.656583 0.000000 0.000000 0.000000 7.125000 0.000000 0.000000 1.001925 17.081998 0.663116
-9.133319 17.555920 21.637890 190.304139 -50.994371 1611.835142 0.000000 0.000000 0.000000 -7.966658 -1.022598 -18.841234 7.218604 15.511871 49.693914 0.247278 -2.638352 -8.842295 0.081501 -1.826990 -5.028124 0.000000 0.000000 0.000000 31.949660 -1.054115 -8.274774 -2.308441 -9.480737 27.311264 -0.951888 5.301602 -17.428671 -1.221028 -7.002464 19.725234 4.298060 0.634156 5.051211 4.315507 0.949551 1.399228 1.978245 0.386218 -1.389558 -11.365549 -3.447131 -12.808934 7.748359 -7.179194 35.550635 3.876976 -4.340033 15.260790 0.000000 0.000000 0.000000 1.656443 4.170348 -14.938356 16.588141 -26.310600 3.903613 22.051279 3.192104 -22.165175 0.000000 0.000000 0.000000 -7.125000 0.000000 0.000000 -7.155800 53.566026 1.513074 0.000000 0.000000 0.000000 -3.643731 0.221207 28.419140 -22.765471 -33.831316 -7.007301 -21.580816 -19.299906 -9.318335 0.000000 0.000000 0.000000 7.125000 0.000000 0.000000 3.836565 19.983953 2.299646
-9.370917 17.557301 21.584952 189.954773 -41.464414 1612.481870 0.000000 0.000000 0.000000 -5.784675 -1.536366 -20.427689 8.855033 16.713513 55.587494 0.122426 -6.343658 -7.151048 0.006398 -0.452115 -1.242408 0.000000 0.000000 0.000000 32.543553 1.955718 -5.125467 -2.121002 -9.113635 26.151471 -0.678998 9.775890 -15.222371 -1.934220 -8.727477 24.946552 4.925772 0.718517 5.838173 4.189132 1.084417 1.840790 1.483902 0.438344 -1.356314 -11.209780 -3.451047 -12.270252 8.305865 -7.875159 35.530385 3.949653 -4.665961 15.233733 0.000000 0.000000 0.000000 0.375132 4.577826 -13.256402 13.692252 -22.292843 2.710463 18.581239 11.516071 -22.286970 0.000000 0.000000 0.000000 -7.125000 0.000000 0.000000 -10.713877 53.046809 2.142650 0.000000 0.000000 0.000000 -4.195420 -0.106497 29.571584 -22.149940 -33.145962 -6.667619 -21.101472 -19.443516 -9.289660 0.000000 0.000000 0.000000 7.125000 0.000000 0.000000 4.179974 20.047642 2.498995
-9.698671 17.573190 21.568720 188.647245 -31.980805 1614.345342 0.000000 0.000000 0.000000 -5.812780 -4.994504 -19.153448 8.263690 16.309780 53.506810 -0.259869 -15.731807 -8.046914 0.125085 -2.279854 -6.279584 0.000000 0.000000 0.000000 31.645367 5.348106 -3.417347 -2.187590 -9.246273 26.568708 -0.428186 12.939251 -13.825115 -0.892397 -6.021163 16.845922 5.111124 0.662792 6.618306 3.847649 1.081930 1.698236 1.019547 0.424012 -1.928327 -11.374916 -3.133992 -12.192948 8.072285 -7.800535 36.202598 3.876867 -4.841490 15.522164 0.000000 0.000000 0.000000 -1.554456 5.467139 -12.104007 12.504310 -20.556630 2.276225 14.193993 11.364917 -23.500220 0.000000 0.000000 0.000000 -7.125000 0.000000 0.000000 -15.611521 53.456053 3.309799 0.000000 0.000000 0.000000 -5.445844 0.213948 29.880371 -21.163120 -32.018214 -6.136172 -21.847714 -19.684193 -7.993984 0.000000 0.000000 0.000000 7.125000 0.000000 0.000000 3.621377 21.383233 2.055815
-10.120176 17.582547 21.515047 186.959160 -22.925914 1616.687496 0.000000 0.000000 0.000000 -7.781691 -11.532603 -14.982677 6.213823 14.630752 45.830739 -0.193932 -19.017815 -11.613743 0.180474 -2.729091 -7.525876 0.000000 0.000000 0.000000 29.383846 8.703477 -2.577323 -2.228035 -9.325694 26.819468 0.040731 17.856903 -12.173128 -0.945234 -6.191473 17.341206 5.392037 1.028332 5.991284 2.822082 1.562683 1.685926 -0.223718 0.690547 -1.546263 -11.520290 -3.078008 -12.623607 8.691238 -8.333286 36.659623 4.056069 -5.129174 15.971916 0.000000 0.000000 0.000000 -1.929242 6.058583 -14.291080 12.759345 -20.933594 2.366647 15.639955 10.011705 -22.903522 0.000000 0.000000 0.000000 -7.125000 0.000000 0.000000 -13.902666 53.131984 2.824763 0.000000 0.000000 0.000000 -5.600267 -0.110918 25.393435 -19.491764 -30.024593 -5.274988 -24.121828 -17.517991 -7.890119 0.000000 0.000000 0.000000 7.125000 0.000000 0.000000 1.968792 21.348135 1.118675
-10.523616 17.549924 21.428620 186.387449 -14.274886 1618.210684 0.000000 0.000000 0.000000 -9.368350 -14.719505 -10.501508 4.016835 12.181204 36.378270 -0.018060 -17.019121 -11.782664 0.403155 -4.046288 -11.210722 0.000000 0.000000 0.000000 28.005090 12.464002 -2.505914 -2.511591 -9.858925 28.521185 0.513415 21.662211 -10.985042 -1.193688 -6.932291 19.515084 4.882219 1.259404 5.472563 3.066675 1.768473 1.858821 0.311253 0.791483 -1.093263 -11.603483 -2.475438 -13.967922 8.387865 -7.203289 36.772425 4.114087 -4.716141 16.165964 0.000000 0.000000 0.000000 -2.321444 6.256503 -18.158663 14.219367 -23.047207 2.913562 19.989967 9.137529 -25.917743 0.000000 0.000000 0.000000 -7.125000 0.000000 0.000000 -10.875494 56.992819 3.218047 0.000000 0.000000 0.000000 -7.601454 -1.062457 23.063542 -18.248586 -28.474241 -4.667165 -21.312823 -17.581513 -6.780612 0.000000 0.000000 0.000000 7.125000 0.000000 0.000000 4.002002 22.711307 2.150688
-10.904997 17.507580 21.328675 185.987785 -8.401079 1619.357896 0.000000 0.000000 0.000000 -11.025586 -11.426075 -8.389112 3.145785 10.927440 32.035394 0.042003 -15.651328 -11.434964 0.000916 0.178625 0.490888 0.000000 0.000000 0.000000 26.188059 14.508410 -3.015428 -2.704216 -10.200153 29.627226 1.145161 25.652721 -9.627471 -1.330581 -7.304288 20.620069 4.181382 0.952911 5.142625 3.148151 1.323979 1.586419 0.815100 0.567916 -1.223205 -10.953615 -2.140555 -13.696584 7.440536 -6.837823 36.726154 3.617238 -4.689479 15.937315 0.000000 0.000000 0.000000 -1.141400 6.101187 -19.320957 15.147910 -24.351677 3.286730 16.314420 8.083245 -23.559509 0.000000 0.000000 0.000000 -7.125000 0.000000 0.000000 -13.529775 53.903822 3.003301 0.000000 0.000000 0.000000 -9.150414 -1.257522 21.265988 -17.688731 -27.756712 -4.403273 -22.546805 -18.448464 -9.488813 0.000000 0.000000 0.000000 7.125000 0.000000 0.000000 3.149765 19.729820 1.904621
-11.248442 17.494103 21.279336 185.531142 -5.999874 1619.904624 0.000000 0.000000 0.000000 -12.524912 -8.685603 -7.983011 2.838100 10.428125 30.374739 0.073632 -15.969046 -11.973543 0.054444 1.504422 4.137848 0.000000 0.000000 0.000000 24.290084 15.217583 -3.720617 -2.900734 -10.532005 30.717931 1.424215 27.160286 -9.082989 -1.585009 -7.939664 22.532372 2.807150 0.004321 5.282315 3.387336 0.018110 1.330551 1.911672 -0.083871 -1.588085 -10.507801 -1.577053 -12.986381 7.352656 -6.635502 36.986711 3.515799 -4.716011 15.832732 0.000000 0.000000 0.000000 0.796342 4.689846 -19.933027 15.206641 -24.433170 3.310985 17.176776 8.788690 -22.118308 0.000000 0.000000 0.000000 -7.125000 0.000000 0.000000 -12.042824 52.625797 2.286808 0.000000 0.000000 0.000000 -9.491349 -0.919938 17.251075 -17.858631 -27.975756 -4.482727 -23.242044 -17.764835 -8.988248 0.000000 0.000000 0.000000 7.125000 0.000000 0.000000 2.637841 20.216957 1.564534
